HIERARCHY
ROOT hip
{
  OFFSET -0.990681 80.781 173.218
  CHANNELS 6 Xposition Yposition Zposition Zrotation Xrotation Yrotation
  JOINT abdomen
  {
    OFFSET 0 20.6881 -0.73152
    CHANNELS 3 Zrotation Xrotation Yrotation
    JOINT chest
    {
      OFFSET 0 11.7043 -0.48768
      CHANNELS 3 Zrotation Xrotation Yrotation
      JOINT neck
      {
        OFFSET 0 22.1894 -2.19456
        CHANNELS 3 Zrotation Xrotation Yrotation
        JOINT head
        {
          OFFSET -0.24384 7.07133 1.2192
          CHANNELS 3 Zrotation Xrotation Yrotation
          JOINT leftEye
          {
            OFFSET 4.14528 8.04674 8.04672
            CHANNELS 3 Zrotation Xrotation Yrotation
            End Site
            {
              OFFSET 1 0 0
            }
          }
          JOINT rightEye
          {
            OFFSET -3.6576 8.04674 8.04672
            CHANNELS 3 Zrotation Xrotation Yrotation
            End Site
            {
              OFFSET 1 0 0
            }
          }
        }
      }
      JOINT rCollar
      {
        OFFSET -2.68224 19.2634 -4.8768
        CHANNELS 3 Zrotation Xrotation Yrotation
        JOINT rShldr
        {
          OFFSET -8.77824 -1.95073 1.46304
          CHANNELS 3 Zrotation Xrotation Yrotation
          JOINT rForeArm
          {
            OFFSET -28.1742 -1.7115 0.48768
            CHANNELS 3 Zrotation Xrotation Yrotation
            JOINT rHand
            {
              OFFSET -22.5879 0.773209 7.07136
              CHANNELS 3 Zrotation Xrotation Yrotation
              JOINT rThumb1
              {
                OFFSET -1.2192 -0.487915 3.41376
                CHANNELS 3 Zrotation Xrotation Yrotation
                JOINT rThumb2
                {
                  OFFSET -3.37035 -0.52449 3.41376
                  CHANNELS 3 Zrotation Xrotation Yrotation
                  End Site
                  {
                    OFFSET -1.78271 -1.18214 1.43049
                  }
                }
              }
              JOINT rIndex1
              {
                OFFSET -7.75947 0.938293 5.60832
                CHANNELS 3 Zrotation Xrotation Yrotation
                JOINT rIndex2
                {
                  OFFSET -2.54057 -0.884171 1.56538
                  CHANNELS 3 Zrotation Xrotation Yrotation
                  End Site
                  {
                    OFFSET -1.62519 -0.234802 1.16502
                  }
                }
              }
              JOINT rMid1
              {
                OFFSET -8.24714 1.18213 3.41376
                CHANNELS 3 Zrotation Xrotation Yrotation
                JOINT rMid2
                {
                  OFFSET -3.10165 -0.590103 1.0647
                  CHANNELS 3 Zrotation Xrotation Yrotation
                  End Site
                  {
                    OFFSET -2.48547 -0.328903 0.83742
                  }
                }
              }
              JOINT rRing1
              {
                OFFSET -8.82822 0.546677 1.51678
                CHANNELS 3 Zrotation Xrotation Yrotation
                JOINT rRing2
                {
                  OFFSET -2.60934 -0.819778 -0.0198488
                  CHANNELS 3 Zrotation Xrotation Yrotation
                  End Site
                  {
                    OFFSET -2.33842 -0.294052 0.168128
                  }
                }
              }
              JOINT rPinky1
              {
                OFFSET -8.27202 -0.0477905 -0.4584
                CHANNELS 3 Zrotation Xrotation Yrotation
                JOINT rPinky2
                {
                  OFFSET -1.82734 -0.647385 -0.700984
                  CHANNELS 3 Zrotation Xrotation Yrotation
                  End Site
                  {
                    OFFSET -1.69225 -0.51767 -0.607171
                  }
                }
              }
            }
          }
        }
      }
      JOINT lCollar
      {
        OFFSET 2.68224 19.2634 -4.8768
        CHANNELS 3 Zrotation Xrotation Yrotation
        JOINT lShldr
        {
          OFFSET 8.77824 -1.95073 1.46304
          CHANNELS 3 Zrotation Xrotation Yrotation
          JOINT lForeArm
          {
            OFFSET 28.1742 -1.7115 0.48768
            CHANNELS 3 Zrotation Xrotation Yrotation
            JOINT lHand
            {
              OFFSET 22.5879 0.773209 7.07136
              CHANNELS 3 Zrotation Xrotation Yrotation
              JOINT lThumb1
              {
                OFFSET 1.2192 -0.487915 3.41376
                CHANNELS 3 Zrotation Xrotation Yrotation
                JOINT lThumb2
                {
                  OFFSET 3.37035 -0.52449 3.41376
                  CHANNELS 3 Zrotation Xrotation Yrotation
                  End Site
                  {
                    OFFSET 1.78271 -1.18214 1.43049
                  }
                }
              }
              JOINT lIndex1
              {
                OFFSET 7.75947 0.938293 5.60832
                CHANNELS 3 Zrotation Xrotation Yrotation
                JOINT lIndex2
                {
                  OFFSET 2.54057 -0.884171 1.56538
                  CHANNELS 3 Zrotation Xrotation Yrotation
                  End Site
                  {
                    OFFSET 1.62519 -0.234802 1.16502
                  }
                }
              }
              JOINT lMid1
              {
                OFFSET 8.24714 1.18213 3.41376
                CHANNELS 3 Zrotation Xrotation Yrotation
                JOINT lMid2
                {
                  OFFSET 3.10165 -0.590103 1.0647
                  CHANNELS 3 Zrotation Xrotation Yrotation
                  End Site
                  {
                    OFFSET 2.48547 -0.328903 0.83742
                  }
                }
              }
              JOINT lRing1
              {
                OFFSET 8.82822 0.546677 1.51678
                CHANNELS 3 Zrotation Xrotation Yrotation
                JOINT lRing2
                {
                  OFFSET 2.60934 -0.819778 -0.0198488
                  CHANNELS 3 Zrotation Xrotation Yrotation
                  End Site
                  {
                    OFFSET 2.33842 -0.294052 0.168128
                  }
                }
              }
              JOINT lPinky1
              {
                OFFSET 8.27202 -0.0477905 -0.4584
                CHANNELS 3 Zrotation Xrotation Yrotation
                JOINT lPinky2
                {
                  OFFSET 1.82734 -0.647385 -0.700984
                  CHANNELS 3 Zrotation Xrotation Yrotation
                  End Site
                  {
                    OFFSET 1.69225 -0.51767 -0.607171
                  }
                }
              }
            }
          }
        }
      }
    }
  }
  JOINT rButtock
  {
    OFFSET -8.77824 4.35084 1.2192
    CHANNELS 3 Zrotation Xrotation Yrotation
    JOINT rThigh
    {
      OFFSET 0 -1.70687 -2.19456
      CHANNELS 3 Zrotation Xrotation Yrotation
      JOINT rShin
      {
        OFFSET 0 -36.8199 0.73152
        CHANNELS 3 Zrotation Xrotation Yrotation
        JOINT rFoot
        {
          OFFSET 0.73152 -45.1104 -5.12064
          CHANNELS 3 Zrotation Xrotation Yrotation
          End Site
          {
            OFFSET -1.1221 -3.69964 12.103
          }
        }
      }
    }
  }
  JOINT lButtock
  {
    OFFSET 8.77824 4.35084 1.2192
    CHANNELS 3 Zrotation Xrotation Yrotation
    JOINT lThigh
    {
      OFFSET 0 -1.70687 -2.19456
      CHANNELS 3 Zrotation Xrotation Yrotation
      JOINT lShin
      {
        OFFSET 0 -36.8199 0.73152
        CHANNELS 3 Zrotation Xrotation Yrotation
        JOINT lFoot
        {
          OFFSET -0.73152 -45.1104 -5.12064
          CHANNELS 3 Zrotation Xrotation Yrotation
          End Site
          {
            OFFSET 1.1221 -3.69964 12.103
          }
        }
      }
    }
  }
}
MOTION
Frames:	5
Frame Time:	0.00833333
5.51142 85.2343 -194.728 -0.535984 -0.000989687 0.00934293 0.705189 -0.00371385 0.0199543 0.194579 -0.00526912 0.0337141 1.12166e-014 0 -3.72721e-017 3.3576e-014 3.18055e-015 -1.25793e-016 -0 0 0 -0 0 0 5.46536e-015 -1.32005e-017 9.93923e-017 1.18884e-013 -2.48481e-016 9.93923e-016 2.01771e-012 -6.17624e-013 -2.8625e-014 2.31175e-011 5.33712e-013 -4.13472e-014 5.45239e-011 -1.85568e-013 -1.43125e-013 9.41567e-011 -3.27597e-013 -2.56035e-013 5.4529e-011 -1.8487e-013 -1.52667e-013 7.73091 5.47488 0.417314 5.45244e-011 -1.85168e-013 -1.43125e-013 2.90554 0.965183 0.102902 5.45367e-011 -1.84671e-013 -1.46306e-013 10.2786 0.731801 0.0259123 5.45256e-011 -1.84075e-013 -1.43125e-013 2.22167 -0.733487 -0.20892 5.46816e-015 -1.41712e-017 -9.93923e-017 1.14953e-013 -4.22417e-016 -7.95139e-016 2.0192e-012 5.90987e-013 -2.54444e-014 2.31098e-011 -6.73955e-013 -3.18055e-014 5.45184e-011 -1.82741e-013 -1.62208e-013 9.41627e-011 -3.14875e-013 -2.62396e-013 5.45135e-011 -1.80496e-013 -1.52667e-013 -7.73091 5.47488 -0.417314 5.4518e-011 -1.82286e-013 -1.52667e-013 -2.90554 0.965183 -0.102902 5.45127e-011 -1.82584e-013 -1.51871e-013 -10.2786 0.731801 -0.0259123 5.45225e-011 -1.82484e-013 -1.59028e-013 -2.22167 -0.733487 0.20892 -2.03217e-016 0 -3.88251e-019 1.03767 -4.8484 -0.0878813 -0.00129058 3.22991 0.00172038 -0.507984 1.61857 0.0909485 2.03217e-016 0 3.88251e-019 0.0358155 -2.16336 0.0186165 0.0086454 -1.63356 0.0730536 0.498164 3.79688 -0.134159 
5.20522 83.4869 -196.69 -1.09556 1.78754 0.493038 2.09431 -0.133409 -1.42745 0.419883 -0.649123 -0.373085 -0.571831 -0.563668 -0.087491 0.218543 -2.52548 0.0234135 -0 0 0 -0 0 0 4.15849e-014 2.42413e-014 -6.95009e-015 21.011 -0.579715 -1.77911 -2.95254 -1.16083 4.78927 0.00207935 -1.01214 -0.142167 -3.02074e-010 -3.74692e-011 2.31714e-010 -5.21565e-010 -6.46229e-011 4.00509e-010 -3.0207e-010 -3.74688e-011 2.31706e-010 7.73091 5.47488 0.417314 -3.02073e-010 -3.74685e-011 2.31715e-010 2.90554 0.965183 0.102902 -3.02064e-010 -3.74683e-011 2.31714e-010 10.2786 0.731801 0.0259123 -3.02075e-010 -3.74666e-011 2.31721e-010 2.22167 -0.733487 -0.20892 4.15653e-014 2.42422e-014 -7.15004e-015 -22.2928 5.38714 1.69667 5.03071 -2.47441 -7.64199 -0.00493791 1.55906 -0.218819 -5.07241e-010 -5.52404e-010 -3.42714e-010 -8.79274e-010 -9.55699e-010 -5.8944e-010 -5.07249e-010 -5.52404e-010 -3.42703e-010 -7.73091 5.47488 -0.417314 -5.07244e-010 -5.52406e-010 -3.42708e-010 -2.90554 0.965183 -0.102902 -5.07245e-010 -5.52404e-010 -3.42706e-010 -10.2786 0.731801 -0.0259123 -5.07236e-010 -5.52404e-010 -3.42713e-010 -2.22167 -0.733487 0.20892 -2.03217e-016 0 -3.88251e-019 2.47024 -8.23873 0.290335 0.013656 10.0161 0.124469 -0.74276 -3.4443 -1.75947 2.03217e-016 0 3.88251e-019 0.20085 -6.62151 -1.85175 -0.00937115 6.92505 -0.0733622 0.636319 -1.53733 1.29565 
5.20434 83.4848 -196.699 -1.71397 3.67865 1.00758 3.5482 -0.269467 -2.95702 0.650373 -1.3305 -0.803064 -1.18 -1.16349 -0.180518 0.451982 -5.19427 0.0480157 -0 0 0 -0 0 0 8.31995e-014 5.20741e-014 -1.60488e-014 43.1811 -1.19568 -3.6638 -5.86309 -2.36066 9.85767 -0.00118439 -2.07798 -0.292028 -7.17142e-010 -9.31921e-011 4.59327e-010 -1.2382e-009 -1.60871e-010 7.9385e-010 -7.1714e-010 -9.31921e-011 4.59319e-010 7.73091 5.47488 0.417314 -7.17142e-010 -9.3191e-011 4.59329e-010 2.90554 0.965183 0.102902 -7.17136e-010 -9.3191e-011 4.59329e-010 10.2786 0.731801 0.0259123 -7.17148e-010 -9.31882e-011 4.5934e-010 2.22167 -0.733487 -0.20892 8.31546e-014 5.2077e-014 -1.62506e-014 -46.2126 11.0674 3.54091 9.63901 -4.9444 -15.7677 0.00280455 3.20396 -0.450235 -1.13393e-009 -1.15013e-009 -7.2446e-010 -1.96517e-009 -1.98976e-009 -1.24603e-009 -1.13394e-009 -1.15013e-009 -7.24448e-010 -7.73091 5.47488 -0.417314 -1.13393e-009 -1.15014e-009 -7.24458e-010 -2.90554 0.965183 -0.102902 -1.13393e-009 -1.15013e-009 -7.24455e-010 -10.2786 0.731801 -0.0259123 -1.13392e-009 -1.15013e-009 -7.24462e-010 -2.22167 -0.733487 0.20892 -2.03217e-016 0 -3.88251e-019 4.02712 -11.8226 0.696911 -0.00332733 17.1904 0.262033 -1.34985 -8.78222 -3.75256 2.03217e-016 0 3.88251e-019 0.04641 -11.3157 -3.87922 0.0205758 15.9714 -0.23609 1.07276 -7.16983 2.82449 
5.16163 83.4971 -196.684 -2.30562 5.36304 1.46613 4.85291 -0.391805 -4.32234 0.84305 -1.93646 -1.18729 -1.72066 -1.69099 -0.262575 0.661869 -7.57643 0.0707903 -0 0 0 -0 0 0 1.13824e-013 7.27504e-014 -2.1049e-014 62.9251 -1.73244 -5.3395 -8.28136 -3.38529 14.3905 -0.00884837 -3.03636 -0.427035 -1.01527e-009 -1.12037e-010 6.95429e-010 -1.75301e-009 -1.93213e-010 1.20204e-009 -1.01527e-009 -1.12037e-010 6.95423e-010 7.73091 5.47488 0.417314 -1.01527e-009 -1.12035e-010 6.95432e-010 2.90554 0.965183 0.102902 -1.01526e-009 -1.12035e-010 6.95435e-010 10.2786 0.731801 0.0259123 -1.01528e-009 -1.12032e-010 6.95448e-010 2.22167 -0.733487 -0.20892 1.1376e-013 7.2755e-014 -2.12513e-014 -67.8673 16.1035 5.27507 13.1587 -6.89616 -23.081 0.0210126 4.67692 -0.658407 -1.63076e-009 -1.65685e-009 -1.02782e-009 -2.82615e-009 -2.86647e-009 -1.7678e-009 -1.63077e-009 -1.65685e-009 -1.02781e-009 -7.73091 5.47488 -0.417314 -1.63077e-009 -1.65685e-009 -1.02782e-009 -2.90554 0.965183 -0.102902 -1.63076e-009 -1.65685e-009 -1.02782e-009 -10.2786 0.731801 -0.0259123 -1.63075e-009 -1.65685e-009 -1.02782e-009 -2.22167 -0.733487 0.20892 -2.03217e-016 0 -3.88251e-019 5.47399 -15.0172 1.07383 -0.0507623 23.5881 0.397493 -2.21415 -13.5124 -5.60635 2.03217e-016 0 3.88251e-019 -0.369752 -15.4732 -5.765 0.0948444 24.0418 -0.399157 1.72374 -12.1744 4.24902 
5.23749 83.4908 -196.715 -2.76552 6.53211 1.77921 5.7983 -0.480773 -5.27693 0.960594 -2.35421 -1.45655 -2.08878 -2.03767 -0.317101 0.808588 -9.24202 0.0884893 -0 0 0 -0 0 0 1.16973e-013 7.55353e-014 -1.58034e-014 76.6817 -2.07773 -6.49052 -9.87265 -4.0643 17.5629 -0.0170585 -3.72613 -0.52442 -1.02104e-009 -3.86851e-011 9.52757e-010 -1.76324e-009 -6.57898e-011 1.64736e-009 -1.02104e-009 -3.86851e-011 9.52751e-010 7.73091 5.47488 0.417314 -1.02104e-009 -3.86835e-011 9.52761e-010 2.90554 0.965183 0.102902 -1.02104e-009 -3.86839e-011 9.52765e-010 10.2786 0.731801 0.0259123 -1.02105e-009 -3.86799e-011 9.5278e-010 2.22167 -0.733487 -0.20892 1.16905e-013 7.55411e-014 -1.60022e-014 -83.1497 19.5842 6.55792 15.3032 -8.05566 -28.2151 0.0403009 5.72029 -0.806643 -1.80296e-009 -1.93603e-009 -1.1352e-009 -3.12482e-009 -3.34977e-009 -1.95249e-009 -1.80298e-009 -1.93603e-009 -1.13519e-009 -7.73091 5.47488 -0.417314 -1.80297e-009 -1.93603e-009 -1.13521e-009 -2.90554 0.965183 -0.102902 -1.80296e-009 -1.93603e-009 -1.1352e-009 -10.2786 0.731801 -0.0259123 -1.80296e-009 -1.93603e-009 -1.13521e-009 -2.22167 -0.733487 0.20892 -2.03217e-016 0 -3.88251e-019 6.54762 -17.2406 1.35358 -0.105472 28.0451 0.502759 -3.007 -16.7795 -6.96577 2.03217e-016 0 3.88251e-019 -0.795303 -18.3489 -7.14028 0.17822 29.6727 -0.530104 2.33718 -15.6408 5.31066 
